# xmcd CD database file
#
# Track frame offsets:
#	150
#	23980
#	47310
#	71137
#
# Disc length: 1258 seconds
#
# Revision: 0
# Processed by: cddbd v1.5.1PL0 Copyright (c) Steve Scherf et al.
# Submitted via: CDex 1.51
#
DISCID=2d04e804
DTITLE=UPPER*SLOPE - MIRACLE (こいこい7 エンディングテーマ)
DYEAR=2005
DGENRE=Anime
TTITLE0=UPPER*SLOPE - Miracle
TTITLE1=UPPER*SLOPE - 人界
TTITLE2=UPPER*SLOPE - Miracle (instruments)
TTITLE3=UPPER*SLOPE - 人界 (instruments)
EXTD=YEAR: 2005
EXTT0=
EXTT1=
EXTT2=
EXTT3=
PLAYORDER=
